<?xml version="1.0" encoding="UTF-8" standalone="no"?>
<svg width="375px" height="667px" viewBox="0 0 375 667" version="1.1" xmlns="http://www.w3.org/2000/svg" xmlns:xlink="http://www.w3.org/1999/xlink">
    <!-- Generator: Sketch 39.1 (31720) - http://www.bohemiancoding.com/sketch -->
    <title>Onboarding1</title>
    <desc>Created with Sketch.</desc>
    <defs></defs>
    <g id="Page-1" stroke="none" stroke-width="1" fill="none" fill-rule="evenodd">
        <g id="Onboarding1">
            <g id="Pagination" transform="translate(163.000000, 37.000000)">
                <circle id="Oval-2" fill="#8B999F" cx="5" cy="5" r="5"></circle>
                <circle id="Oval-2-Copy" fill="#DDE1E2" cx="25" cy="5" r="5"></circle>
                <circle id="Oval-2-Copy-2" fill="#DDE1E2" cx="45" cy="5" r="5"></circle>
            </g>
            <text id="Welcome-to-Sesame!" font-family="OpenSans-Bold, Open Sans" font-size="16" font-weight="bold" letter-spacing="1.80000007" fill="#8B999F">
                <tspan x="89.5148431" y="505">Welcome to Sesame!</tspan>
            </text>
            <text id="Sesame-let’s-you-unl" font-family="OpenSans, Open Sans" font-size="12" font-weight="normal" letter-spacing="1.35000014" fill="#8B999F">
                <tspan x="87.4376932" y="528">Sesame let’s you unlock your </tspan>
                <tspan x="106.795311" y="545">doors by scanning your </tspan>
                <tspan x="148.698046" y="562">fingerprint.</tspan>
            </text>
            <g id="noun_599096_cc" transform="translate(111.000000, 152.000000)" fill="#4CD964">
                <g id="Group">
                    <g id="Shape">
                        <path d="M147.956977,104.768078 C147.821173,104.768078 147.68537,104.762849 147.544343,104.747161 C145.394986,104.522306 143.833242,102.592736 144.055229,100.440925 C144.102238,100.004287 148.330438,56.4294599 125.779168,29.4703787 C115.176024,16.7974404 100.177536,9.66744188 81.1963404,8.27909234 C57.7336185,6.5717623 38.8882265,15.2208401 25.1459243,34.0066997 C14.6759719,48.3216031 11.2077512,63.45226 11.1738002,63.6039065 C10.6984868,65.7164986 8.5961392,67.0420979 6.49901479,66.5767001 C4.38883231,66.1060732 3.05691021,64.0170124 3.52438875,61.9018056 C3.67063902,61.2403133 18.8597743,-4.11408436 81.7656718,0.456226374 C102.956291,2.00668076 119.795965,10.085777 131.811992,24.4660453 C156.491725,54.0083456 152.046762,99.3427952 151.848279,101.259293 C151.63935,103.27253 149.936579,104.768078 147.956977,104.768078 L147.956977,104.768078 Z"></path>
                        <path d="M133.112575,188.513532 C131.762371,188.516146 130.451342,187.81805 129.722702,186.570888 C129.547724,186.267595 111.62162,156.100407 82.6745128,150.387519 C50.0267515,143.958231 18.5411576,166.064626 18.2277642,166.289481 C16.4623145,167.549715 14.0204573,167.133995 12.7642719,165.369144 C11.5106982,163.604292 11.9207212,161.157032 13.6809477,159.899412 C15.0781601,158.905867 48.2769715,135.62029 84.1892477,142.690153 C116.659419,149.095909 135.698071,181.252804 136.489389,182.617622 C137.578431,184.487057 136.946421,186.887254 135.079119,187.97754 C134.460167,188.340969 133.781147,188.513532 133.112575,188.513532 L133.112575,188.513532 Z"></path>
                        <path d="M120.205988,197.510351 C118.845339,197.510351 117.521251,196.799181 116.795223,195.531103 C116.656808,195.287945 102.69513,171.212762 79.0365373,166.06724 C52.3328049,160.254997 28.0030278,179.678818 27.7601479,179.874912 C26.0756581,181.239731 23.6102964,180.980886 22.2522582,179.297087 C20.8889968,177.613288 21.1475463,175.145111 22.8294245,173.782908 C23.9367479,172.883487 50.3636495,151.804629 80.7001342,158.40125 C107.832171,164.302389 122.974297,190.539842 123.606307,191.653659 C124.671845,193.536167 124.013719,195.925906 122.13597,196.995275 C121.527464,197.345631 120.861503,197.510351 120.205988,197.510351 L120.205988,197.510351 Z"></path>
                        <path d="M106.630829,204.629891 C105.471274,204.629891 104.322164,204.11743 103.549127,203.134343 C98.2658363,196.420065 87.3858608,185.276664 80.6896877,183.958909 C55.7905792,179.061774 40.7241897,195.010798 40.0947912,195.693208 C38.6270653,197.280266 36.1538687,197.38485 34.563397,195.923292 C32.9729254,194.459119 32.860626,191.990942 34.3179055,190.39604 C35.0622149,189.580286 52.8760202,170.493748 82.1991994,176.264158 C93.9227256,178.567615 108.124671,196.271033 109.707308,198.28427 C111.047065,199.986371 110.749342,202.451934 109.051794,203.790606 C108.3336,204.352744 107.479603,204.629891 106.630829,204.629891 L106.630829,204.629891 Z"></path>
                        <path d="M59.6061442,206.504555 C58.4544234,206.504555 57.3131489,205.999938 56.5401118,205.027309 C55.19252,203.333052 55.4719625,200.864875 57.1642871,199.515744 C66.8638139,191.789618 77.699392,191.460179 88.4957959,198.571876 C90.3030314,199.761516 90.8044609,202.195703 89.6161774,204.002388 C88.427894,205.816916 85.9964832,206.316304 84.1918594,205.124049 C76.1689874,199.839954 69.1280815,200.007288 62.0453898,205.654812 C61.3219733,206.227408 60.4601414,206.504555 59.6061442,206.504555 L59.6061442,206.504555 Z"></path>
                        <path d="M143.45717,163.839606 C139.965445,161.086438 136.14988,157.888789 132.109716,154.500275 C116.998929,141.829952 100.344679,127.902008 86.3072651,124.644224 C88.3861082,122.753872 90.6869383,120.437341 93.5127025,117.35212 C94.9752052,115.757218 94.8681291,113.273353 93.2724342,111.811795 C91.6793509,110.350237 89.2035427,110.454821 87.7384284,112.052338 C79.8017396,120.714488 76.790551,122.563007 69.5119885,127.028734 C68.1121644,127.888935 66.5660902,128.835418 64.8189217,129.933548 C62.9855701,131.083969 62.43452,133.505084 63.5836293,135.340529 C64.3279387,136.52494 65.6024053,137.175974 66.9055997,137.175974 C67.6159582,137.175974 68.3367631,136.982494 68.9844428,136.577232 C70.7054951,135.49479 72.2254533,134.56138 73.6043844,133.714251 C74.2964616,133.290687 74.946753,132.890654 75.5787631,132.498465 C76.077581,132.527225 76.5894569,132.459246 77.0882748,132.281453 C88.5976488,128.247134 110.838136,146.89965 127.07714,160.516457 C131.161701,163.941575 135.021663,167.175828 138.607406,170.004819 C139.322988,170.569571 140.179597,170.844104 141.028371,170.844104 C142.187926,170.844104 143.337036,170.331643 144.110073,169.348556 C145.44983,167.646455 145.157329,165.180893 143.45717,163.839606 L143.45717,163.839606 Z"></path>
                        <path d="M9.57288208,81.2681052 C7.89361558,81.2681052 6.33970646,80.1778194 5.8252189,78.4861769 C5.19582041,76.4154183 6.36321096,74.2243883 8.43421926,73.5916565 C24.8377541,68.5951669 26.5979805,60.8219782 29.0320029,50.0629229 C31.2074757,40.4438307 33.6780606,29.5409727 47.0442907,19.7545465 C48.7862358,18.4760099 51.2385395,18.855126 52.5182294,20.6069042 C53.7953076,22.3534531 53.4140123,24.8085571 51.6668439,26.0870937 C40.6667342,34.140044 38.7263065,42.7159131 36.6709679,51.7963989 C34.1141998,63.091446 31.4686369,74.7708385 10.7115449,81.095542 C10.3354728,81.2131987 9.95156581,81.2681052 9.57288208,81.2681052 L9.57288208,81.2681052 Z"></path>
                        <path d="M7.35040029,134.205795 C5.76254021,134.205795 4.26869816,133.233166 3.68108547,131.653951 C2.92371799,129.625026 3.95530472,127.363402 5.98191561,126.607784 C6.44417093,126.435221 52.5025597,109.134451 64.4768006,95.7529573 C76.12459,82.7348925 82.4943116,44.9226306 82.5596019,44.5408999 C82.9121695,42.4021618 84.941392,40.9589058 87.0646325,41.311876 C89.1983195,41.6674608 90.6425409,43.6859276 90.2873617,45.822051 C90.0157541,47.4666308 83.4815009,86.2724385 70.3137533,100.987375 C57.0545994,115.801666 10.6854288,133.222707 8.71888496,133.954794 C8.2696877,134.127357 7.80482077,134.205795 7.35040029,134.205795 L7.35040029,134.205795 Z"></path>
                        <path d="M10.8107862,150.782322 C9.26993509,150.782322 7.80743238,149.8646 7.18586873,148.348135 C6.36582257,146.342741 7.32167256,144.052357 9.32477894,143.231374 C9.84187811,143.019592 61.2070624,121.812618 76.6077382,104.88312 C88.4148359,91.9095037 94.6931511,62.9581017 97.3831114,46.8574304 C97.897599,43.7512924 97.103669,40.5327269 95.1971922,38.0279456 C93.2907155,35.5205497 90.4022726,33.8916575 87.2735615,33.5622187 C81.3582604,32.9242577 75.9861745,37.0631603 75.0694987,42.9590704 C72.6406996,58.3459575 68.1879012,78.5567709 60.7761464,87.5169854 C48.9794951,101.774368 9.02705517,112.128161 7.332119,112.562184 C5.24021781,113.106019 3.10130761,111.832712 2.56592715,109.735807 C2.0305467,107.636288 3.2945669,105.500165 5.39169131,104.964173 C16.2533855,102.182245 46.294758,92.7226425 54.7407111,82.512652 C59.6400952,76.5905961 64.1111749,62.1109732 67.3286809,41.7406694 C68.8878132,31.7189297 77.9866693,24.7196609 88.0962193,25.762884 C93.361229,26.317178 98.2214389,29.0546582 101.428498,33.2772279 C104.635558,37.4997976 105.977926,42.9198514 105.10826,48.1490399 C101.647874,68.8618555 94.8968568,96.4301372 82.3976819,110.167215 C65.8113343,128.396166 14.4722661,149.595296 12.2941818,150.489488 C11.8110335,150.688197 11.3069924,150.782322 10.8107862,150.782322 L10.8107862,150.782322 Z"></path>
                        <path d="M147.599186,117.637111 C144.099626,117.637111 139.320376,117.101119 135.617111,113.511281 C129.3623,107.448037 128.053882,94.5084104 127.727431,71.2149903 C127.286069,39.8895367 105.923083,22.2959321 86.0513271,21.6448981 C69.1280815,21.0853749 65.2837887,30.3828721 59.4181082,48.2431653 C56.6027905,56.8190344 53.4114006,66.5374812 47.4073047,75.3512784 C34.8402279,93.7920116 5.40474937,94.1266796 4.15639885,94.1319088 L4.14072917,94.1319088 C1.9861493,94.1319088 0.236369275,92.3879745 0.225922827,90.2309342 C0.215476379,88.0660502 1.96003318,86.3038137 4.11983628,86.2881261 C4.3862207,86.2881261 30.7008229,85.9508435 40.9357303,70.9299995 C46.3156509,63.0339249 49.1936473,54.269805 51.9776257,45.7932905 C57.2661399,29.68739 62.7609715,13.0219663 86.3072651,13.8063446 C109.803938,14.5750353 135.053003,34.9191931 135.562267,71.107792 C135.831263,90.2335488 136.870684,103.805908 141.067545,107.876831 C142.091297,108.867762 143.723554,109.890068 148.129344,109.788099 L148.199857,109.788099 C150.328321,109.788099 152.075489,111.498044 152.114664,113.642011 C152.153838,115.806895 150.427562,117.595278 148.265147,117.631882 C148.048384,117.634496 147.829008,117.637111 147.599186,117.637111 L147.599186,117.637111 Z"></path>
                        <path d="M143.997774,152.264797 C143.535518,152.264797 143.070651,152.183745 142.613619,152.011182 C141.360045,151.535325 111.765259,140.151382 103.810288,120.89751 C90.736559,89.266149 110.067711,52.5467874 110.895592,50.9989476 C111.91412,49.0929084 114.285464,48.3660512 116.197164,49.3962014 C118.101029,50.4185077 118.821834,52.7951739 117.800694,54.7038277 C117.615269,55.0515687 99.4097223,89.7341613 111.047065,117.89857 C117.722345,134.048919 145.107709,144.567432 145.381928,144.672016 C147.405927,145.438092 148.427067,147.70233 147.661865,149.728641 C147.069029,151.300012 145.577799,152.264797 143.997774,152.264797 L143.997774,152.264797 Z"></path>
                        <path d="M147.956977,134.454181 C147.821173,134.454181 147.687981,134.446337 147.552177,134.433264 C135.48653,133.193947 126.489527,128.581803 120.817106,120.719718 C114.08437,111.390845 112.452113,97.7243613 116.095311,81.2001257 C116.56279,79.0875336 118.657303,77.7567051 120.764873,78.2142591 C122.880279,78.6822715 124.212201,80.7739469 123.747334,82.8891536 C120.59773,97.1674527 121.78079,108.661209 127.168546,116.123261 C131.475094,122.09238 138.604795,125.627311 148.353942,126.628701 C150.505911,126.848327 152.070266,128.775283 151.850891,130.932323 C151.641962,132.95079 149.941802,134.454181 147.956977,134.454181 L147.956977,134.454181 Z"></path>
                    </g>
                </g>
            </g>
        </g>
    </g>
</svg>